<svg width="83" height="20" viewBox="0 0 83 20" fill="none" xmlns="http://www.w3.org/2000/svg">
<path d="M58.8461 0H43.5897V20H49.4872V12.1795H57.5641V7.5641H49.4872V5H58.8461V0Z" fill="#374151"/>
<path d="M68.9744 0H61.6667L68.2051 9.23077L61.0256 20H68.2051L71.6667 14.1026L75 20H82.4359L75.3846 9.23077L81.6667 0H74.7436L71.9231 5.38462L68.9744 0Z" fill="#009AFF"/>
<path d="M3.97436 8.07666H0V19.9997H11.9231V16.1536H3.97436V8.07666Z" fill="#009AFF"/>
<path d="M0 0V5.89744H3.97436V3.97436H16.2821V16.0256H14.2308V20H20V0H0Z" fill="#374151"/>
<path d="M30.5129 0H24.359V20H39.2308V14.8718H30.5129V0Z" fill="#374151"/>
</svg>
