<svg width="656" height="93" viewBox="0 0 656 93" fill="none" xmlns="http://www.w3.org/2000/svg">
<g clip-path="url(#clip0_43_2748)">
<path d="M18.5955 74.7206V37.3133H0V93.3161H56.0028V74.7206H18.5955Z" fill="#0094FF"/>
<path d="M93.1938 -0.0974014H0V28.0121H18.5955V18.7143H74.5983V74.7171H65.3005V93.3126H93.1938V-0.0974014Z" fill="#003778"/>
<path d="M112.026 -0.316109H140.784V69.309H182.299V93.3101H112.026V-0.316109Z" fill="#003778"/>
<path d="M200.674 -0.316109H273.11V23.6851H229.649V35.3613H267.056V57.6327H229.649V93.3101H200.674V-0.316109Z" fill="#003778"/>
<path d="M315.693 43.5804L284.989 -0.0974014H318.721L332.775 25.2011L346.614 -0.0974014H378.399L348.56 43.7967L381.859 93.0964H347.263L331.478 65.4194L315.045 93.3126H282.178L315.693 43.5804Z" fill="#0094FF"/>
<path fill-rule="evenodd" clip-rule="evenodd" d="M420.157 93.3102V-0.316109H422.498V93.3102H420.157Z" fill="#CCCCCC"/>
<path d="M648.832 53.7785C648.832 50.9418 648.421 48.2918 647.6 45.8283C646.854 43.2903 645.697 41.1254 644.129 39.3339C642.636 37.4676 640.732 36.012 638.418 34.9669C636.104 33.8472 633.454 33.2873 630.468 33.2873C627.482 33.2873 624.832 33.8472 622.518 34.9669C620.279 36.0866 618.338 37.5796 616.695 39.4458C615.128 41.3121 613.859 43.4769 612.888 45.9403C611.918 48.4037 611.283 51.0164 610.985 53.7785H648.832ZM610.985 59.3771C610.985 62.5124 611.395 65.4984 612.216 68.335C613.038 71.097 614.232 73.5231 615.8 75.6133C617.442 77.6288 619.495 79.2711 621.958 80.5402C624.422 81.7345 627.258 82.3317 630.468 82.3317C634.872 82.3317 638.642 81.1747 641.778 78.8605C644.913 76.5464 647.003 73.2619 648.048 69.0069H655.55C654.729 71.7689 653.647 74.3443 652.303 76.7331C650.959 79.0472 649.28 81.1 647.264 82.8916C645.249 84.6085 642.86 85.9522 640.098 86.9226C637.336 87.8931 634.126 88.3783 630.468 88.3783C625.84 88.3783 621.846 87.5945 618.487 86.0269C615.128 84.4592 612.366 82.3317 610.201 79.6444C608.036 76.8824 606.431 73.6724 605.386 70.0146C604.341 66.2822 603.818 62.2885 603.818 58.0335C603.818 53.7785 604.416 49.7847 605.61 46.0523C606.879 42.3198 608.633 39.0726 610.873 36.3106C613.187 33.4739 615.986 31.2718 619.271 29.7041C622.555 28.0619 626.288 27.2407 630.468 27.2407C638.456 27.2407 644.726 30.0027 649.28 35.5268C653.833 40.9761 656.073 48.9263 655.998 59.3771H610.985Z" fill="#00426F"/>
<path d="M553.58 86.8107H546.862V28.8084H553.58V36.8704C556.267 34.0338 559.029 31.7197 561.866 29.9281C564.777 28.1365 568.249 27.2407 572.28 27.2407C575.863 27.2407 579.185 27.8752 582.245 29.1443C585.306 30.3387 587.881 32.4662 589.971 35.5268C591.39 37.6169 592.211 39.7818 592.435 42.0212C592.733 44.1861 592.883 46.4629 592.883 48.8516V86.8107H586.164V48.9636C586.164 43.7382 585.007 39.8191 582.693 37.2064C580.379 34.5937 576.535 33.2873 571.16 33.2873C569.07 33.2873 567.166 33.6232 565.449 34.2951C563.732 34.8922 562.165 35.7134 560.746 36.7585C559.403 37.8036 558.246 38.9979 557.275 40.3416C556.305 41.6853 555.558 43.1036 555.036 44.5966C554.364 46.4629 553.953 48.2544 553.804 49.9714C553.655 51.6883 553.58 53.5545 553.58 55.57V86.8107Z" fill="#00426F"/>
<path d="M459.822 46.6122C459.822 40.7149 460.606 35.1908 462.174 30.0401C463.816 24.8893 466.205 20.4103 469.34 16.6032C472.475 12.7215 476.357 9.66086 480.985 7.42139C485.613 5.18192 490.951 4.06218 496.997 4.06218C503.268 4.06218 508.755 5.18192 513.457 7.42139C518.235 9.58622 522.191 12.6095 525.327 16.4913C528.537 20.2984 530.925 24.8146 532.493 30.0401C534.135 35.1908 534.956 40.7149 534.956 46.6122C534.956 52.4348 534.135 57.9215 532.493 63.0723C530.925 68.1484 528.574 72.6274 525.439 76.5091C522.303 80.3162 518.384 83.3395 513.681 85.579C508.979 87.8184 503.529 88.9382 497.333 88.9382C491.137 88.9382 485.688 87.8184 480.985 85.579C476.282 83.3395 472.363 80.3162 469.228 76.5091C466.093 72.6274 463.741 68.1484 462.174 63.0723C460.606 57.9215 459.822 52.4348 459.822 46.6122ZM497.445 82.4437C502.671 82.4437 507.15 81.4733 510.882 79.5324C514.689 77.5169 517.787 74.8668 520.176 71.5823C522.639 68.2977 524.431 64.4906 525.551 60.161C526.745 55.8313 527.342 51.315 527.342 46.6122C527.342 41.0135 526.633 36.012 525.215 31.6077C523.871 27.1287 521.893 23.3216 519.28 20.1864C516.667 17.0511 513.495 14.6624 509.762 13.0201C506.03 11.3778 501.85 10.5567 497.221 10.5567C492.071 10.5567 487.592 11.5644 483.784 13.5799C480.052 15.5955 476.954 18.2828 474.491 21.642C472.102 24.9266 470.31 28.7337 469.116 33.0633C467.996 37.393 467.436 41.9093 467.436 46.6122C467.436 51.3897 467.996 55.9433 469.116 60.2729C470.31 64.6026 472.102 68.4097 474.491 71.6942C476.954 74.9788 480.052 77.5915 483.784 79.5324C487.592 81.4733 492.145 82.4437 497.445 82.4437Z" fill="#00426F"/>
</g>
<defs>
<clipPath id="clip0_43_2748">
<rect width="656" height="93" fill="white"/>
</clipPath>
</defs>
</svg>
