<?xml version="1.0" encoding="UTF-8" standalone="no"?>
<svg xmlns="http://www.w3.org/2000/svg" version="1.1" id="svg5076" width="500" height="500" viewBox="0 0 500 500">
  <path
     style="fill:#FFFFFF;fill-opacity:1"
     d="M 1,349.5 V 200 h 50 50 v 99.5 99.5 h 100 100 v 50 50 H 151 1 Z M 350,449 v -50 h 25 25 V 250 101 H 250.5 101 v 25 25 H 51 1 V 76 1 H 250.5 500 v 249 249 h -75 -75 z" />
  <path
     style="opacity:1;fill:#FFFFFF;fill-opacity:1;stroke:none"
     d="m 1,1 c 0.06656,49.456877 -0.23208744,100.61168 0,150 32.977813,-0.0662 67.090858,0.23208 100,0 l -0.0684,-50.04763 h 299 l 0.0256,291.46195 -0.0256,6.53805 c -16.96486,0.0662 -33.10373,-0.23178 -50,0 0.0662,32.97781 -0.16372,67.13847 0.0684,100.04763 49.95633,-0.0664 100.11231,0.23208 150,0 C 499.9337,333.18999 500.23216,166.74132 500,1 333.69067,1.0663854 167.24067,0.7679231 1,1 Z" />
  <path
     style="opacity:1;fill:#FFFFFF;fill-opacity:1;stroke:none"
     d="m 0.90980496,200.82473 c 0.0664207,99.39385 -0.13259586,198.89766 0.0994836,298.2229 99.8932714,-0.0664 199.8964014,0.13258 299.7210114,-0.0995 -0.0662,-32.97781 0.13258,-66.06543 -0.0995,-98.97459 -66.88231,0 -133.76462,0 -200.646932,0 -0.06651,-66.4023 0.132562,-132.9146 -0.0995,-199.24832 -32.977698,0.0662 -66.065608,-0.13248 -98.97458408,0.0995 z" />
</svg>
